<?xml version="1.0" encoding="utf-8"?>
<!-- Generator: Adobe Illustrator 16.0.2, SVG Export Plug-In . SVG Version: 6.00 Build 0)  -->
<!DOCTYPE svg PUBLIC "-//W3C//DTD SVG 1.1//EN" "http://www.w3.org/Graphics/SVG/1.1/DTD/svg11.dtd">
<svg version="1.1" id="Layer_1" xmlns="http://www.w3.org/2000/svg" xmlns:xlink="http://www.w3.org/1999/xlink" x="0px" y="0px"
	 width="540px" height="240px" viewBox="0 0 540 240" enable-background="new 0 0 540 240" xml:space="preserve">
<path stroke="#000000" stroke-miterlimit="10" d="M154.5,228.5c0,2.209-1.791,4-4,4h-139c-2.209,0-4-1.791-4-4l0,0
	c0-2.209,1.791-4,4-4h139C152.709,224.5,154.5,226.291,154.5,228.5L154.5,228.5z"/>
<g>
	<path fill="#833818" stroke="#000000" stroke-width="3" stroke-miterlimit="10" d="M49.896,219.46c0,0-46.601-10.646-46.601-83.998
		c0,0,10.068-53.792,6.904-92.914c0,0,38.834,10.068,48.615,61.847c0,0-23.876,38.833-11.794,58.971L49.896,219.46z"/>
	<path fill="#AEC4E0" stroke="#000000" stroke-width="3" stroke-miterlimit="10" d="M10.199,75.628c0,0,17.835,2.877,30.78-11.507
		c0,0-15.39-17.831-30.78-21.574C10.199,42.548,11.925,63.259,10.199,75.628z"/>
</g>
<g>
	<path fill="#833818" stroke="#000000" stroke-width="3" stroke-miterlimit="10" d="M50.184,224.5
		c-11.367-13.507-23.3-46.077-23.3-46.077c-5.179-15.245,2.876-19.178,2.876-19.178c7.192-2.304,23.588,32.407,23.588,32.407
		c-21.575-35.383-2.301-75.702-2.301-75.702C66.868,89.197,71.47,72.489,71.47,72.489s6.042,0.275,8.63-0.013
		c0,0,11.506,17.254,28.479,25.596c0,0,2.589-0.292,4.027-1.154c0,0,16.877,37.587-1.534,75.941c0,0,11.027-16.109,19.177-12.37
		c0,0,7.384,3.741,1.439,12.659c0,0-21.24,42.908-20.665,51.352H50.184L50.184,224.5z"/>
	<path fill="#AEC4E0" stroke="#000000" stroke-width="3" stroke-miterlimit="10" d="M83.553,78.026c0,0-0.424,1.094-0.666,1.525
		c-2.577,4.582-17.175,31.784-8.06,44.404c0,0,14.575,11.891,28.191,0c0,0,8.63-12.656,3.452-27.998
		C106.471,95.957,87.963,83.587,83.553,78.026z"/>
</g>
<g>
	<path stroke="#000000" stroke-miterlimit="10" d="M73.842,141.264l9.658,5.322V224.5H63.129c0,0,2.288-12.348,11.014-12.828
		L73.842,141.264z"/>
	<path stroke="#000000" stroke-miterlimit="10" d="M100.306,141.264l-9.806,5.322V224.5h20.668c0,0-2.362-12.348-11.089-12.828
		L100.306,141.264z"/>
</g>
<g>
	<path fill="#AEC4E0" stroke="#000000" stroke-width="3" stroke-miterlimit="10" d="M44.066,45.548l-5.964,16.561
		c0,0,14.958,12.37,41.999,9.78c0,0,9.206,21.288,28.19,26.177c0,0,18.506-6.231,24.739-28.765c0,0,14.287,1.725,33.369-13.809
		c0,0,2.014-10.644-5.465-17.26L44.066,45.548z"/>
	<path fill="#833818" stroke="#000000" stroke-width="3" stroke-miterlimit="10" d="M68.02,18.672c0,0-25.027-16.972-47.464-9.781
		c0,0,8.054,42.574,67.888,60.41c0,0,11.795,17.546,19.562,21.861c0,0,9.206-0.288,21.287-25.314c0,0,43.725-29.729,50.916-58.733
		c0,0-31.355-11.168-55.806,8.104C124.401,15.22,102,2.363,68.02,18.672z"/>
	
		<ellipse transform="matrix(-0.2987 -0.9544 0.9544 -0.2987 63.8232 158.6823)" stroke="#000000" stroke-miterlimit="10" cx="90.217" cy="55.89" rx="4.885" ry="3.596"/>
	
		<ellipse transform="matrix(-0.6948 -0.7192 0.7192 -0.6948 116.8947 155.2777)" fill="#FFFFFF" stroke="#FFFFFF" stroke-miterlimit="10" cx="91.397" cy="52.834" rx="1.037" ry="0.636"/>
	
		<ellipse transform="matrix(-0.2988 0.9543 -0.9543 -0.2988 214.2584 -47.9576)" stroke="#000000" stroke-miterlimit="10" cx="124.748" cy="54.735" rx="4.885" ry="3.596"/>
	<path stroke="#000000" stroke-miterlimit="10" d="M100.021,83.323c0,0,9.085-5.249,17.332,0.792c0,0-3.595,5.992-9.061,6.568
		C108.292,90.684,101.46,87.135,100.021,83.323z"/>
	<line fill="none" stroke="#000000" stroke-miterlimit="10" x1="108.5" y1="91" x2="108.5" y2="98"/>
	<path stroke="#000000" stroke-miterlimit="10" d="M31.74,31.968c0,0-6.774-11.187-3.323-15.79c0,0,10.764-9.588,22.28-5.801
		c0,0-12.595-5.441-30.142-1.486C20.555,8.891,20.042,15.867,31.74,31.968z"/>
	<path stroke="#000000" stroke-miterlimit="10" d="M180.495,7.45c0,0-18.144-7.246-30.513-2.931c0,0,11.815-0.231,19.583,8.399
		c0,0,4.89,7.766-0.863,16.396C168.701,29.315,179.632,15.502,180.495,7.45z"/>
	
		<ellipse transform="matrix(-0.32 -0.9474 0.9474 -0.32 118.2096 189.3761)" fill="#FFFFFF" stroke="#FFFFFF" stroke-miterlimit="10" cx="127.069" cy="52.265" rx="1.037" ry="0.636"/>
</g>
<path fill="#29ABE2" d="M177.347,94.521c0,0.41-0.227,0.615-0.678,0.615c-0.781,0-3.874-0.154-9.276-0.463
	c-0.124,5.199-0.186,8.825-0.186,10.881c0,2.424,0.097,6.069,0.293,10.938c0.195,4.87,0.293,8.519,0.293,10.942
	c0,0.39-0.093,0.635-0.278,0.738c-0.062,0.041-0.35,0.092-0.863,0.153c-1.233,0.166-3.042,0.247-5.424,0.247
	c-2.65,0-4.511-0.081-5.579-0.247c-0.575-0.103-0.862-0.42-0.862-0.954c0-2.424,0.103-6.061,0.308-10.91
	c0.205-4.85,0.309-8.486,0.309-10.91c0-1.604-0.082-5.178-0.247-10.726c-4.109,0.411-7.386,0.616-9.831,0.616
	c-0.33,0-0.494-0.103-0.494-0.31c0-0.267,0.144-1.056,0.432-2.373c0.328-1.438,0.513-2.312,0.555-2.618
	c0.062-0.968,0.133-1.932,0.216-2.897c0.143-1.541,0.389-2.312,0.739-2.312c0.041,0,0.184,0.012,0.432,0.03
	c3.328,0.433,8.249,0.647,14.762,0.647c1.849,0,5.26-0.196,10.232-0.588c2.671-0.203,4.018-0.308,4.038-0.308
	c0.411,0,0.648,0.026,0.709,0.077s0.103,0.252,0.123,0.602c0,0.556-0.021,1.326-0.062,2.313c-0.041,1.088-0.061,1.858-0.061,2.31
	c0,0.516,0.066,1.271,0.2,2.269C177.28,93.282,177.347,94.027,177.347,94.521z"/>
<path fill="#29ABE2" d="M211.186,105.984l-0.062,21.267c0,0.72-0.288,1.119-0.863,1.202c-0.657,0.082-2.157,0.123-4.5,0.123
	c-2.26,0-3.832-0.081-4.715-0.247c-0.678-0.124-1.017-0.565-1.017-1.324c0-1.769,0.031-4.428,0.093-7.983
	c0.062-3.553,0.093-6.215,0.093-7.981c0-2.403-1.223-3.604-3.667-3.604c-0.823,0-1.789,0.33-2.898,0.986
	c-1.212,0.719-1.818,1.469-1.818,2.249v7.612c0,0.986,0.02,2.472,0.062,4.455c0.041,1.98,0.061,3.465,0.061,4.453
	c0,0.759-0.318,1.18-0.955,1.263c-0.637,0.082-2.425,0.123-5.362,0.123c-1.685,0-2.897-0.081-3.637-0.247
	c-0.74-0.164-1.109-0.523-1.109-1.078c0-1.623,0.009-4.063,0.031-7.318c0.02-3.257,0.03-5.697,0.03-7.322
	c0-6.717-0.072-12.273-0.216-16.672c-0.062-1.539-0.113-3.08-0.154-4.623c-0.103-1.787-0.288-3.316-0.555-4.59
	c-0.062-0.269-0.092-0.465-0.092-0.588c0-0.308,0.154-0.513,0.461-0.615c0.637-0.187,1.573-0.297,2.805-0.338
	c1.644-0.063,2.599-0.115,2.867-0.156l5.579-0.646c0.329,0,0.493,0.217,0.493,0.646c0,0.658-0.042,1.553-0.124,2.684
	c-0.082,1.314-0.123,2.207-0.123,2.682c-0.124,4.642-0.185,8.31-0.185,11c0,0.414,0.103,0.619,0.308,0.619
	c0.041,0,0.566-0.359,1.572-1.08c1.192-0.842,2.332-1.511,3.421-2.004c1.623-0.719,3.194-1.078,4.715-1.078
	c2.629,0,4.828,0.688,6.595,2.064C210.231,101.393,211.186,103.419,211.186,105.984z"/>
<path fill="#29ABE2" d="M244.44,111.596c0,2.075-0.667,3.256-2.003,3.543c-0.226,0.043-2.353,0.271-6.38,0.678
	c-2.424,0.268-6.041,0.586-10.848,0.957c0.288,1.336,1.161,2.352,2.619,3.05c1.192,0.577,2.548,0.862,4.069,0.862
	c1.829,0,3.667-0.492,5.516-1.479c0.781-0.494,1.561-0.986,2.342-1.479c0.433,0.205,1.156,1.252,2.173,3.146
	c1.017,1.89,1.526,3.092,1.526,3.604c0,0.144-0.154,0.379-0.462,0.709c-2.507,2.691-6.4,4.035-11.681,4.035
	c-4.89,0-8.834-1.426-11.834-4.283c-3.082-2.896-4.623-6.769-4.623-11.621c0-4.723,1.375-8.596,4.129-11.615
	c2.836-3.123,6.595-4.684,11.281-4.684c3.945,0,7.293,1.438,10.046,4.313C243.063,104.21,244.44,107.63,244.44,111.596z
	 M233.654,109.714c0-1.271-0.452-2.392-1.356-3.358c-0.905-0.965-1.982-1.447-3.236-1.447c-1.295,0-2.362,0.545-3.205,1.633
	c-0.782,1.008-1.171,2.188-1.171,3.544c0,0.556,0.287,0.832,0.863,0.832c1.52,0,3.884-0.235,7.089-0.708
	C233.314,110.104,233.654,109.941,233.654,109.714z"/>
<path fill="#29ABE2" d="M186.662,146.137c0,0.227-0.206,0.34-0.617,0.34c-1.54,0-3.878-0.133-7.011-0.4
	c-3.133-0.266-5.481-0.4-7.042-0.4c-1.972,0-3.123,0.072-3.451,0.215c-0.76,0.352-1.141,1.338-1.141,2.959
	c0,1.953,0.493,3.063,1.479,3.33c0.412,0.103,1.038,0.152,1.88,0.152c1.417,0,3.539-0.076,6.365-0.229
	c2.824-0.156,4.945-0.231,6.362-0.231c0.679,0,1.019,1.808,1.019,5.424c0,3.144-0.112,4.972-0.34,5.486
	c-0.146,0.368-0.421,0.553-0.833,0.553c0.27,0-0.379-0.069-1.94-0.214c-2.197-0.204-5.526-0.309-9.986-0.309
	c-1.438,0-2.25,0.01-2.434,0.028c-1.049,0.166-1.572,0.608-1.572,1.326c0,2.917,0.123,6.276,0.37,10.079
	c0.206,3.434,0.309,4.96,0.309,4.593c0,0.532-0.646,0.841-1.942,0.923c0.35-0.021-0.565-0.029-2.742-0.029
	c-3.843,0-6.318-0.133-7.428-0.401c-0.596-0.142-0.894-0.462-0.894-0.954c0-2.281,0.078-5.706,0.231-10.279
	c0.154-4.57,0.231-7.996,0.231-10.277c0-2.713-0.123-6.121-0.369-10.229c-0.369-6.353-0.565-9.76-0.586-10.233l-0.031-0.369
	c-0.021-0.514,0.288-0.771,0.924-0.771c1.521,0,3.817,0.032,6.888,0.094c3.072,0.062,5.378,0.092,6.92,0.092
	c1.643,0,4.114-0.123,7.412-0.371c3.297-0.243,5.766-0.368,7.411-0.368c1.027,0,1.604,0.421,1.727,1.265
	c0,0.883,0.041,2.208,0.124,3.977c0.041,0.451,0.175,1.322,0.399,2.619C186.559,144.646,186.662,145.521,186.662,146.137z"/>
<path fill="#29ABE2" d="M219.73,164.166c0,4.688-1.434,8.486-4.299,11.404s-6.632,4.377-11.297,4.377
	c-4.521,0-8.236-1.439-11.156-4.316c-2.918-2.877-4.375-6.574-4.375-11.093c0-4.769,1.396-8.636,4.191-11.604
	c2.794-2.969,6.575-4.453,11.34-4.453c4.645,0,8.403,1.453,11.28,4.359C218.292,155.748,219.73,159.523,219.73,164.166z
	 M209.623,164.166c0-1.622-0.504-3.055-1.512-4.298s-2.312-1.866-3.914-1.866c-1.623,0-2.959,0.639-4.004,1.912
	c-0.988,1.189-1.48,2.609-1.48,4.252c0,1.664,0.492,3.094,1.48,4.285c1.045,1.271,2.381,1.908,4.004,1.908
	c1.604,0,2.929-0.637,3.977-1.908C209.141,167.26,209.623,165.83,209.623,164.166z"/>
<path fill="#29ABE2" d="M250.645,178.497c0,0.452-0.34,0.729-1.02,0.832c-1.212,0.166-2.495,0.247-3.852,0.247
	c-1.438,0-2.641-0.081-3.604-0.247c-0.247-0.039-0.629-0.246-1.142-0.617c-1.006-1.437-2.537-3.584-4.592-6.438
	c-0.515,0.615-2.197,2.732-5.056,6.348c-0.267,0.371-0.647,0.607-1.14,0.709c-0.721,0.166-1.85,0.247-3.393,0.247
	c-3.246,0-4.867-0.359-4.867-1.079c0-0.596,0.008-1.504,0.031-2.727c0.018-1.223,0.028-2.143,0.028-2.762
	c0-0.347,0.187-0.727,0.555-1.137c1.604-1.666,3.968-4.184,7.091-7.555c-1.438-1.375-2.867-2.752-4.283-4.129
	c-2.282-2.238-3.422-3.563-3.422-3.976v-5.424c0-0.533,0.357-0.8,1.076-0.8c0.823,0,2.051,0.029,3.685,0.091
	c1.635,0.062,2.862,0.093,3.683,0.093c0.412,0,0.792,0.227,1.143,0.678c1.129,1.502,2.711,3.4,4.744,5.703
	c1.851-2.24,3.318-4.142,4.408-5.703c0.309-0.408,0.688-0.617,1.141-0.617c0.863,0,2.146-0.039,3.853-0.121
	c1.705-0.08,2.989-0.122,3.854-0.122c0.718,0,1.076,0.267,1.076,0.8v5.424c0,0.393-0.174,0.75-0.524,1.079
	c-1.562,1.584-3.872,3.985-6.933,7.211c1.561,1.624,3.873,4.099,6.933,7.429c0.352,0.392,0.524,0.77,0.524,1.141v5.423H250.645z"/>
<path fill="#29ABE2" d="M282.54,162.596c0,2.075-0.668,3.256-2.003,3.543c-0.227,0.043-2.354,0.271-6.378,0.678
	c-2.425,0.268-6.04,0.586-10.851,0.957c0.289,1.336,1.162,2.352,2.621,3.05c1.189,0.577,2.547,0.862,4.065,0.862
	c1.828,0,3.67-0.492,5.519-1.479c0.779-0.494,1.561-0.986,2.342-1.479c0.432,0.205,1.156,1.252,2.174,3.146
	c1.018,1.89,1.523,3.092,1.523,3.604c0,0.144-0.152,0.379-0.462,0.709c-2.507,2.691-6.399,4.035-11.68,4.035
	c-4.892,0-8.835-1.426-11.836-4.283c-3.082-2.896-4.622-6.769-4.622-11.621c0-4.723,1.377-8.596,4.13-11.615
	c2.835-3.123,6.597-4.684,11.278-4.684c3.947,0,7.295,1.438,10.05,4.313C281.164,155.21,282.54,158.63,282.54,162.596z
	 M271.753,160.714c0-1.271-0.452-2.392-1.354-3.358c-0.903-0.965-1.982-1.447-3.236-1.447c-1.294,0-2.363,0.545-3.205,1.633
	c-0.782,1.008-1.172,2.188-1.172,3.544c0,0.556,0.289,0.832,0.863,0.832c1.521,0,3.884-0.235,7.09-0.708
	C271.416,161.104,271.753,160.941,271.753,160.714z"/>
<path fill="#29ABE2" d="M303.961,154.396c0,0.207-0.152,0.483-0.462,0.832c-0.577-0.144-1.151-0.215-1.728-0.215
	c-1.213,0-2.229,0.269-3.051,0.801c-0.986,0.615-1.479,1.49-1.479,2.621c0,0.719,0.524,1.633,1.571,2.741
	c1.584,1.663,2.56,2.783,2.929,3.361c1.048,1.56,1.571,3.235,1.571,5.022c0,1.047-0.207,2.155-0.615,3.326
	c-0.475,1.295-1.069,2.24-1.788,2.836c-1.521,1.315-3.298,2.426-5.332,3.329c-2.198,0.944-4.224,1.417-6.071,1.417
	c-0.41,0-1.331-1.115-2.758-3.343c-1.43-2.229-2.143-3.592-2.143-4.083c0-0.188,0.112-0.3,0.338-0.342
	c1.438-0.266,2.887-0.533,4.347-0.801c1.81-0.574,2.714-1.521,2.714-2.836c0-0.901-0.527-1.949-1.574-3.144
	c-1.869-2.075-2.845-3.174-2.926-3.298c-1.05-1.479-1.574-3.04-1.574-4.686c0-3.08,1.563-5.701,4.687-7.857
	c2.794-1.909,5.784-2.867,8.969-2.867c0.327,0,1.142,1.105,2.435,3.314C303.313,152.738,303.961,154.027,303.961,154.396z"/>
<path fill="#29ABE2" d="M185.411,197.521c0,0.41-0.228,0.615-0.677,0.615c-0.78,0-3.873-0.154-9.277-0.463
	c-0.123,5.199-0.186,8.825-0.186,10.881c0,2.424,0.098,6.069,0.293,10.938c0.194,4.87,0.293,8.519,0.293,10.942
	c0,0.39-0.093,0.635-0.277,0.738c-0.062,0.041-0.353,0.092-0.863,0.153c-1.231,0.166-3.041,0.247-5.425,0.247
	c-2.649,0-4.51-0.081-5.578-0.247c-0.575-0.103-0.862-0.42-0.862-0.954c0-2.424,0.104-6.061,0.311-10.91
	c0.203-4.85,0.308-8.486,0.308-10.91c0-1.604-0.082-5.178-0.247-10.726c-4.108,0.411-7.387,0.616-9.831,0.616
	c-0.329,0-0.491-0.103-0.491-0.31c0-0.267,0.143-1.056,0.431-2.373c0.327-1.438,0.513-2.312,0.556-2.618
	c0.063-0.968,0.132-1.932,0.215-2.897c0.145-1.541,0.39-2.312,0.739-2.312c0.04,0,0.186,0.012,0.432,0.03
	c3.329,0.433,8.25,0.647,14.765,0.647c1.847,0,5.258-0.196,10.229-0.588c2.672-0.203,4.018-0.308,4.037-0.308
	c0.41,0,0.646,0.026,0.709,0.077c0.063,0.051,0.104,0.252,0.123,0.602c0,0.556-0.019,1.326-0.061,2.313
	c-0.043,1.088-0.063,1.858-0.063,2.31c0,0.516,0.067,1.271,0.199,2.269C185.344,196.282,185.411,197.027,185.411,197.521z"/>
<path fill="#29ABE2" d="M208.926,212.129c0,0.801-0.44,1.202-1.325,1.202c-0.39,0-0.96-0.024-1.71-0.077
	c-0.748-0.05-1.309-0.077-1.679-0.077c-1.706,0-2.866,0.269-3.484,0.802c-0.615,0.535-0.924,1.612-0.924,3.235
	c0,0.884,0.017,2.226,0.046,4.022c0.032,1.797,0.046,3.139,0.046,4.021c0,0.596,0.044,1.484,0.123,2.666
	c0.082,1.182,0.125,2.061,0.125,2.633c0,0.495-0.34,0.771-1.017,0.834c-0.989,0.082-2.498,0.123-4.531,0.123
	c-1.953,0-3.513-0.062-4.685-0.186c-0.678-0.08-1.018-0.42-1.018-1.018c0-1.644,0.01-4.103,0.031-7.379
	c0.02-3.279,0.028-5.738,0.028-7.384c0-4.827-0.439-8.804-1.324-11.928c-0.042-0.185-0.062-0.337-0.062-0.462
	c0-0.309,0.153-0.512,0.463-0.617c1.13-0.122,2.784-0.348,4.961-0.676c3.247-0.639,4.92-0.956,5.024-0.956
	c0.369,0,0.604,0.646,0.708,1.94c0.104,1.295,0.287,1.941,0.557,1.941c-0.289,0,0.555-0.539,2.526-1.618
	c1.973-1.077,3.871-1.618,5.701-1.618c1.15,0,1.725,0.248,1.725,0.741c0,0.597-0.061,1.438-0.184,2.524
	c-0.125,1.173-0.197,2.016-0.216,2.527c0,0.596,0.009,1.389,0.03,2.375C208.906,210.938,208.926,211.738,208.926,212.129z"/>
<path fill="#29ABE2" d="M243.506,215.92c0,1.583,0.094,3.936,0.276,7.059c0.186,3.123,0.278,5.465,0.278,7.026
	c0,0.821-0.359,1.263-1.079,1.324c-2.549,0.187-5.466,0.278-8.751,0.278c-0.393,0-0.652-0.592-0.786-1.772
	c-0.135-1.181-0.293-1.782-0.479-1.802c-0.164,0.08-0.379,0.257-0.647,0.523c-2.302,2.321-4.768,3.479-7.396,3.479
	c-4.006,0-7.325-1.581-9.955-4.744c-2.483-2.959-3.729-6.493-3.729-10.603c0-4.748,1.284-8.568,3.854-11.465
	c2.669-3,6.326-4.502,10.972-4.502c3.226,0,5.771,1.133,7.642,3.393c0.085,0.103,0.155,0.152,0.218,0.152
	c0.185,0,0.395-0.498,0.632-1.492c0.235-0.998,0.519-1.496,0.847-1.496c0.76,0,2.211,0.216,4.346,0.646
	c2.034,0.413,3.494,0.762,4.379,1.049c0.306,0.123,0.459,0.287,0.459,0.492c0,0.083-0.028,0.299-0.092,0.647
	C243.834,207.837,243.506,211.77,243.506,215.92z M233.582,216.104c0-1.744-0.55-3.188-1.648-4.33
	c-1.1-1.14-2.531-1.709-4.299-1.709s-3.195,0.564-4.285,1.695c-1.089,1.129-1.633,2.578-1.633,4.344
	c0,1.666,0.575,3.094,1.728,4.285c1.149,1.19,2.547,1.786,4.19,1.786c1.744,0,3.174-0.569,4.283-1.71
	C233.028,219.326,233.582,217.873,233.582,216.104z"/>
<path fill="#29ABE2" d="M261.041,217.186c0,1.5,0.031,3.733,0.095,6.703c0.063,2.969,0.091,5.19,0.091,6.67
	c0,0.434-0.258,0.69-0.77,0.771c-0.699,0.124-2.271,0.187-4.716,0.187c-2.466,0-4.049-0.063-4.746-0.187
	c-0.452-0.08-0.729-0.216-0.832-0.399c-0.041-0.082-0.063-0.391-0.063-0.925c0-1.419,0.031-3.55,0.093-6.396
	c0.063-2.846,0.091-4.986,0.091-6.424c0-5.836-0.226-10.479-0.674-13.933c-0.043-0.329-0.063-0.544-0.063-0.646
	c0-0.412,0.277-0.615,0.833-0.615c0.574,0,1.452,0.059,2.635,0.184c1.181,0.124,2.069,0.186,2.664,0.186
	c0.597,0,1.49-0.051,2.685-0.153c1.188-0.103,2.084-0.156,2.679-0.156c0.493,0,0.742,0.208,0.742,0.618
	c0,0.083-0.022,0.277-0.063,0.585C261.268,207.262,261.041,211.902,261.041,217.186z M261.845,194.285
	c0,3.574-2.015,5.361-6.041,5.361c-1.728,0-3.152-0.451-4.285-1.354c-1.233-0.987-1.849-2.321-1.849-4.007
	c0-1.602,0.638-2.918,1.911-3.945c1.171-0.945,2.579-1.417,4.223-1.417c1.604,0,2.988,0.483,4.16,1.448
	C261.217,191.398,261.845,192.703,261.845,194.285z"/>
<path fill="#29ABE2" d="M278.208,212.775c0,5.609,0.021,9.914,0.063,12.914c0,0.475,0.028,1.283,0.091,2.436
	c0.063,1.048,0.094,1.859,0.094,2.434c0,0.434-0.259,0.69-0.771,0.771c-0.924,0.166-2.588,0.247-4.991,0.247
	c-2.467,0-4.038-0.081-4.716-0.247c-0.451-0.103-0.71-0.38-0.771-0.832c0-0.062,0-0.502,0-1.324c0-1.829,0.02-4.565,0.061-8.214
	c0.042-3.646,0.063-6.375,0.063-8.184c0-8.629,0.01-12.563,0.031-11.803c-0.063-4.543-0.32-8.455-0.771-11.742
	c-0.042-0.227-0.063-0.4-0.063-0.524c0-0.452,0.267-0.679,0.802-0.679h11.002c0.515,0,0.751,0.218,0.71,0.646l-0.033,0.557
	C278.477,198.105,278.208,205.956,278.208,212.775z"/>
<path d="M175.526,93.273c0,0.41-0.227,0.617-0.678,0.617c-0.781,0-3.873-0.156-9.276-0.464c-0.125,5.196-0.186,8.822-0.186,10.878
	c0,2.428,0.097,6.073,0.292,10.942c0.195,4.87,0.293,8.519,0.293,10.94c0,0.39-0.093,0.638-0.277,0.739
	c-0.062,0.044-0.35,0.095-0.863,0.154c-1.233,0.162-3.041,0.248-5.424,0.248c-2.65,0-4.511-0.086-5.579-0.248
	c-0.575-0.103-0.863-0.421-0.863-0.955c0-2.425,0.104-6.06,0.309-10.91s0.308-8.485,0.308-10.911c0-1.604-0.083-5.18-0.247-10.725
	c-4.11,0.41-7.387,0.615-9.832,0.615c-0.328,0-0.493-0.103-0.493-0.307c0-0.269,0.144-1.059,0.432-2.375
	c0.328-1.438,0.513-2.311,0.555-2.619c0.061-0.965,0.133-1.932,0.216-2.896c0.144-1.542,0.389-2.313,0.74-2.313
	c0.041,0,0.185,0.012,0.432,0.03c3.328,0.433,8.248,0.646,14.762,0.646c1.849,0,5.259-0.192,10.231-0.584
	c2.671-0.204,4.017-0.309,4.038-0.309c0.412,0,0.647,0.025,0.709,0.077c0.061,0.052,0.103,0.253,0.123,0.601
	c0,0.557-0.02,1.326-0.062,2.313c-0.041,1.091-0.061,1.859-0.061,2.313c0,0.515,0.065,1.27,0.2,2.265
	C175.459,92.035,175.526,92.777,175.526,93.273z"/>
<path d="M209.365,104.738l-0.062,21.265c0,0.722-0.288,1.12-0.862,1.202c-0.658,0.083-2.158,0.126-4.5,0.126
	c-2.259,0-3.832-0.086-4.715-0.248c-0.678-0.124-1.017-0.565-1.017-1.326c0-1.766,0.031-4.428,0.092-7.981
	c0.062-3.557,0.093-6.215,0.093-7.981c0-2.403-1.223-3.606-3.667-3.606c-0.822,0-1.788,0.33-2.896,0.986
	c-1.213,0.721-1.819,1.471-1.819,2.249v7.612c0,0.986,0.021,2.473,0.062,4.455s0.062,3.468,0.062,4.453
	c0,0.761-0.319,1.181-0.956,1.263c-0.638,0.083-2.425,0.126-5.363,0.126c-1.686,0-2.898-0.086-3.637-0.248
	c-0.739-0.164-1.109-0.523-1.109-1.08c0-1.621,0.01-4.063,0.03-7.318c0.021-3.256,0.031-5.697,0.031-7.317
	c0-6.72-0.071-12.279-0.215-16.675c-0.063-1.543-0.114-3.082-0.155-4.623c-0.103-1.787-0.288-3.316-0.555-4.594
	c-0.062-0.267-0.093-0.461-0.093-0.584c0-0.31,0.155-0.515,0.463-0.617c0.637-0.185,1.572-0.297,2.804-0.338
	c1.645-0.063,2.6-0.112,2.867-0.154l5.578-0.646c0.328,0,0.493,0.213,0.493,0.646c0,0.658-0.042,1.551-0.124,2.681
	c-0.082,1.315-0.123,2.21-0.123,2.681c-0.123,4.646-0.186,8.313-0.186,11.004c0,0.412,0.103,0.617,0.308,0.617
	c0.042,0,0.566-0.357,1.572-1.08c1.192-0.84,2.333-1.51,3.421-2.002c1.623-0.72,3.195-1.078,4.715-1.078
	c2.63,0,4.828,0.688,6.595,2.064C208.411,100.146,209.365,102.17,209.365,104.738z"/>
<path d="M242.619,110.35c0,2.073-0.668,3.256-2.003,3.543c-0.227,0.041-2.353,0.267-6.38,0.68c-2.424,0.265-6.04,0.584-10.848,0.953
	c0.288,1.338,1.16,2.354,2.619,3.054c1.192,0.571,2.548,0.862,4.069,0.862c1.829,0,3.667-0.493,5.517-1.48
	c0.781-0.494,1.561-0.986,2.342-1.479c0.432,0.205,1.155,1.254,2.173,3.143c1.017,1.893,1.525,3.094,1.525,3.607
	c0,0.142-0.153,0.379-0.461,0.709c-2.508,2.689-6.401,4.035-11.682,4.035c-4.89,0-8.835-1.428-11.834-4.283
	c-3.082-2.897-4.624-6.771-4.624-11.617c0-4.727,1.378-8.6,4.131-11.619c2.835-3.123,6.595-4.686,11.279-4.686
	c3.945,0,7.294,1.438,10.048,4.314C241.243,102.962,242.619,106.383,242.619,110.35z M231.833,108.467
	c0-1.273-0.451-2.392-1.356-3.359c-0.905-0.965-1.982-1.446-3.236-1.446c-1.294,0-2.362,0.544-3.205,1.633
	c-0.781,1.007-1.171,2.188-1.171,3.545c0,0.554,0.287,0.832,0.863,0.832c1.52,0,3.882-0.235,7.089-0.71
	C231.494,108.855,231.833,108.693,231.833,108.467z"/>
<path d="M184.842,144.893c0,0.225-0.205,0.336-0.617,0.336c-1.539,0-3.877-0.133-7.011-0.399c-3.133-0.267-5.482-0.399-7.042-0.399
	c-1.972,0-3.124,0.071-3.452,0.215c-0.76,0.35-1.141,1.336-1.141,2.959c0,1.953,0.494,3.061,1.48,3.328
	c0.41,0.104,1.038,0.154,1.88,0.154c1.417,0,3.539-0.077,6.365-0.232c2.825-0.151,4.946-0.229,6.364-0.229
	c0.678,0,1.018,1.81,1.018,5.426c0,3.144-0.113,4.972-0.339,5.482c-0.143,0.372-0.421,0.557-0.833,0.557
	c0.268,0-0.379-0.071-1.94-0.216c-2.199-0.203-5.528-0.309-9.985-0.309c-1.438,0-2.25,0.012-2.435,0.031
	c-1.048,0.164-1.573,0.605-1.573,1.324c0,2.917,0.125,6.277,0.372,10.078c0.204,3.434,0.307,4.962,0.307,4.593
	c0,0.533-0.646,0.841-1.941,0.923c0.349-0.02-0.566-0.027-2.743-0.027c-3.842,0-6.319-0.135-7.427-0.401
	c-0.597-0.144-0.895-0.462-0.895-0.955c0-2.28,0.077-5.707,0.231-10.28c0.154-4.57,0.231-7.996,0.231-10.276
	c0-2.714-0.123-6.123-0.37-10.233c-0.369-6.348-0.565-9.757-0.584-10.229l-0.032-0.371c-0.021-0.514,0.288-0.771,0.924-0.771
	c1.521,0,3.816,0.03,6.889,0.094c3.071,0.061,5.378,0.092,6.918,0.092c1.644,0,4.115-0.123,7.413-0.369
	c3.296-0.248,5.769-0.371,7.413-0.371c1.026,0,1.603,0.422,1.726,1.266c0,0.883,0.041,2.209,0.123,3.975
	c0.039,0.453,0.174,1.326,0.401,2.619C184.736,143.398,184.842,144.273,184.842,144.893z"/>
<path d="M217.912,162.919c0,4.685-1.436,8.487-4.301,11.401c-2.865,2.92-6.633,4.378-11.295,4.378
	c-4.521,0-8.239-1.437-11.157-4.313c-2.917-2.876-4.376-6.574-4.376-11.097c0-4.767,1.396-8.634,4.191-11.603
	c2.793-2.971,6.574-4.455,11.342-4.455c4.644,0,8.401,1.455,11.277,4.362C216.471,154.5,217.912,158.277,217.912,162.919z
	 M207.802,162.919c0-1.622-0.502-3.056-1.509-4.298c-1.008-1.245-2.313-1.865-3.916-1.865c-1.622,0-2.957,0.637-4.006,1.911
	c-0.986,1.188-1.479,2.606-1.479,4.252c0,1.666,0.492,3.093,1.479,4.285c1.049,1.272,2.384,1.909,4.006,1.909
	c1.604,0,2.93-0.637,3.977-1.909C207.318,166.012,207.802,164.585,207.802,162.919z"/>
<path d="M248.822,177.25c0,0.453-0.34,0.73-1.016,0.833c-1.215,0.162-2.498,0.248-3.854,0.248c-1.437,0-2.64-0.086-3.606-0.248
	c-0.246-0.043-0.625-0.245-1.138-0.615c-1.009-1.438-2.539-3.588-4.594-6.442c-0.515,0.617-2.199,2.731-5.054,6.35
	c-0.268,0.369-0.647,0.605-1.141,0.709c-0.72,0.162-1.852,0.248-3.393,0.248c-3.246,0-4.868-0.359-4.868-1.081
	c0-0.595,0.011-1.504,0.03-2.728c0.021-1.223,0.031-2.143,0.031-2.758c0-0.351,0.186-0.729,0.555-1.143
	c1.604-1.663,3.965-4.182,7.089-7.549c-1.438-1.377-2.865-2.756-4.284-4.131c-2.279-2.238-3.421-3.563-3.421-3.977v-5.424
	c0-0.534,0.36-0.803,1.079-0.803c0.82,0,2.048,0.033,3.683,0.093c1.636,0.063,2.86,0.094,3.683,0.094
	c0.412,0,0.793,0.228,1.143,0.679c1.129,1.498,2.711,3.399,4.747,5.699c1.849-2.238,3.315-4.142,4.405-5.699
	c0.31-0.41,0.687-0.617,1.141-0.617c0.864,0,2.146-0.041,3.854-0.125c1.705-0.081,2.988-0.122,3.854-0.122
	c0.716,0,1.076,0.269,1.076,0.803v5.424c0,0.39-0.174,0.75-0.521,1.08c-1.563,1.581-3.875,3.985-6.936,7.212
	c1.563,1.622,3.871,4.098,6.936,7.426c0.348,0.391,0.521,0.772,0.521,1.144V177.25L248.822,177.25z"/>
<path d="M280.721,161.35c0,2.073-0.668,3.256-2.002,3.543c-0.229,0.041-2.354,0.267-6.381,0.68
	c-2.426,0.265-6.041,0.584-10.85,0.953c0.287,1.338,1.162,2.354,2.621,3.054c1.189,0.571,2.547,0.862,4.067,0.862
	c1.828,0,3.666-0.493,5.517-1.48c0.781-0.494,1.562-0.986,2.343-1.479c0.431,0.205,1.153,1.254,2.174,3.143
	c1.019,1.893,1.524,3.094,1.524,3.607c0,0.142-0.154,0.379-0.463,0.709c-2.508,2.689-6.4,4.035-11.682,4.035
	c-4.889,0-8.834-1.428-11.835-4.283c-3.082-2.897-4.621-6.771-4.621-11.617c0-4.727,1.377-8.6,4.13-11.619
	c2.836-3.123,6.596-4.686,11.28-4.686c3.944,0,7.292,1.438,10.046,4.314C279.343,153.962,280.721,157.383,280.721,161.35z
	 M269.934,159.467c0-1.273-0.451-2.392-1.356-3.359c-0.903-0.965-1.979-1.446-3.234-1.446c-1.294,0-2.364,0.544-3.206,1.633
	c-0.781,1.007-1.171,2.188-1.171,3.545c0,0.554,0.288,0.832,0.864,0.832c1.52,0,3.881-0.235,7.087-0.71
	C269.594,159.855,269.934,159.693,269.934,159.467z"/>
<path d="M302.141,153.146c0,0.209-0.154,0.485-0.463,0.834c-0.574-0.144-1.15-0.215-1.727-0.215c-1.212,0-2.229,0.268-3.051,0.801
	c-0.986,0.615-1.479,1.49-1.479,2.619c0,0.722,0.524,1.635,1.571,2.744c1.583,1.663,2.561,2.783,2.93,3.357
	c1.047,1.563,1.57,3.236,1.57,5.023c0,1.049-0.206,2.16-0.618,3.33c-0.472,1.293-1.065,2.237-1.784,2.834
	c-1.521,1.313-3.297,2.426-5.333,3.327c-2.198,0.945-4.221,1.419-6.071,1.419c-0.41,0-1.33-1.115-2.756-3.343
	c-1.431-2.229-2.145-3.591-2.145-4.086c0-0.187,0.111-0.295,0.34-0.336c1.438-0.269,2.887-0.535,4.346-0.804
	c1.807-0.574,2.713-1.52,2.713-2.836c0-0.902-0.524-1.951-1.574-3.143c-1.868-2.078-2.846-3.175-2.926-3.298
	c-1.047-1.481-1.572-3.042-1.572-4.685c0-3.082,1.563-5.703,4.686-7.86c2.794-1.91,5.784-2.864,8.967-2.864
	c0.33,0,1.143,1.104,2.438,3.313C301.492,151.488,302.141,152.779,302.141,153.146z"/>
<path d="M183.591,196.273c0,0.41-0.225,0.617-0.678,0.617c-0.781,0-3.874-0.156-9.276-0.464c-0.123,5.196-0.184,8.822-0.184,10.878
	c0,2.428,0.097,6.073,0.293,10.942c0.193,4.87,0.29,8.519,0.29,10.94c0,0.39-0.092,0.638-0.276,0.739
	c-0.061,0.044-0.35,0.095-0.861,0.154c-1.234,0.162-3.041,0.248-5.427,0.248c-2.649,0-4.509-0.086-5.577-0.248
	c-0.574-0.103-0.863-0.421-0.863-0.955c0-2.425,0.104-6.06,0.31-10.91c0.204-4.851,0.31-8.485,0.31-10.911
	c0-1.604-0.082-5.18-0.247-10.725c-4.11,0.41-7.388,0.615-9.831,0.615c-0.33,0-0.493-0.103-0.493-0.307
	c0-0.269,0.145-1.059,0.432-2.375c0.329-1.438,0.515-2.311,0.556-2.619c0.062-0.965,0.133-1.932,0.215-2.896
	c0.144-1.542,0.391-2.313,0.739-2.313c0.04,0,0.188,0.012,0.433,0.03c3.328,0.433,8.249,0.646,14.762,0.646
	c1.851,0,5.259-0.192,10.233-0.584c2.67-0.204,4.016-0.309,4.035-0.309c0.412,0,0.647,0.025,0.709,0.077s0.104,0.253,0.125,0.601
	c0,0.557-0.021,1.326-0.063,2.313c-0.04,1.091-0.062,1.859-0.062,2.313c0,0.515,0.065,1.27,0.2,2.265
	C183.523,195.035,183.591,195.777,183.591,196.273z"/>
<path d="M207.107,210.883c0,0.801-0.443,1.201-1.326,1.201c-0.391,0-0.961-0.025-1.71-0.078c-0.751-0.051-1.312-0.076-1.682-0.076
	c-1.704,0-2.863,0.266-3.481,0.801c-0.615,0.535-0.924,1.612-0.924,3.236c0,0.885,0.015,2.225,0.046,4.021
	c0.032,1.802,0.046,3.141,0.046,4.022c0,0.597,0.042,1.484,0.123,2.667c0.083,1.182,0.124,2.061,0.124,2.637
	c0,0.49-0.339,0.77-1.019,0.832c-0.985,0.082-2.496,0.123-4.53,0.123c-1.952,0-3.515-0.063-4.687-0.187
	c-0.675-0.083-1.017-0.421-1.017-1.019c0-1.644,0.012-4.104,0.031-7.381c0.021-3.274,0.031-5.738,0.031-7.383
	c0-4.824-0.44-8.804-1.325-11.926c-0.041-0.186-0.063-0.34-0.063-0.462c0-0.31,0.154-0.515,0.463-0.616
	c1.13-0.124,2.782-0.352,4.961-0.678c3.247-0.639,4.922-0.955,5.025-0.955c0.37,0,0.604,0.646,0.709,1.939
	c0.103,1.295,0.287,1.941,0.555,1.941c-0.29,0,0.554-0.539,2.527-1.618c1.972-1.077,3.872-1.616,5.701-1.616
	c1.147,0,1.726,0.244,1.726,0.738c0,0.596-0.063,1.438-0.187,2.526c-0.121,1.173-0.194,2.015-0.217,2.526
	c0,0.599,0.014,1.389,0.031,2.373C207.084,209.689,207.107,210.493,207.107,210.883z"/>
<path d="M241.688,214.674c0,1.58,0.092,3.936,0.275,7.059c0.187,3.123,0.277,5.465,0.277,7.024c0,0.821-0.359,1.267-1.078,1.326
	c-2.548,0.187-5.468,0.276-8.753,0.276c-0.392,0-0.654-0.59-0.787-1.772c-0.133-1.181-0.293-1.78-0.479-1.802
	c-0.163,0.081-0.38,0.257-0.646,0.523c-2.299,2.32-4.765,3.482-7.396,3.482c-4.008,0-7.324-1.584-9.957-4.746
	c-2.484-2.96-3.729-6.494-3.729-10.604c0-4.746,1.285-8.567,3.854-11.465c2.673-2.998,6.328-4.5,10.974-4.5
	c3.224,0,5.771,1.129,7.643,3.392c0.082,0.103,0.154,0.153,0.215,0.153c0.188,0,0.396-0.5,0.634-1.496
	c0.233-0.996,0.519-1.494,0.846-1.494c0.761,0,2.208,0.216,4.348,0.648c2.033,0.41,3.492,0.76,4.376,1.045
	c0.308,0.125,0.462,0.291,0.462,0.494c0,0.083-0.03,0.301-0.093,0.648C242.015,206.586,241.688,210.521,241.688,214.674z
	 M231.761,214.857c0-1.746-0.548-3.19-1.646-4.332c-1.102-1.139-2.533-1.709-4.3-1.709c-1.768,0-3.194,0.565-4.284,1.695
	c-1.088,1.131-1.632,2.578-1.632,4.346c0,1.662,0.572,3.092,1.726,4.283c1.15,1.191,2.546,1.789,4.19,1.789
	c1.744,0,3.175-0.572,4.284-1.713C231.208,218.078,231.761,216.626,231.761,214.857z"/>
<path d="M259.223,215.936c0,1.502,0.029,3.735,0.095,6.705c0.06,2.969,0.091,5.193,0.091,6.674c0,0.43-0.258,0.687-0.772,0.77
	c-0.696,0.122-2.269,0.186-4.713,0.186c-2.465,0-4.048-0.063-4.748-0.186c-0.451-0.083-0.729-0.217-0.831-0.4
	c-0.042-0.084-0.062-0.392-0.062-0.926c0-1.418,0.03-3.549,0.093-6.395c0.061-2.846,0.091-4.988,0.091-6.428
	c0-5.836-0.225-10.478-0.678-13.931c-0.041-0.328-0.06-0.542-0.06-0.646c0-0.411,0.274-0.617,0.831-0.617
	c0.572,0,1.453,0.063,2.635,0.188c1.182,0.122,2.068,0.184,2.667,0.184c0.595,0,1.487-0.051,2.681-0.151
	c1.19-0.104,2.085-0.157,2.682-0.157c0.492,0,0.737,0.207,0.737,0.616c0,0.084-0.019,0.278-0.06,0.586
	C259.447,206.012,259.223,210.654,259.223,215.936z M260.021,193.037c0,3.574-2.013,5.363-6.04,5.363
	c-1.727,0-3.154-0.453-4.283-1.356c-1.233-0.987-1.85-2.321-1.85-4.007c0-1.604,0.637-2.918,1.91-3.943
	c1.171-0.945,2.579-1.419,4.223-1.419c1.604,0,2.989,0.483,4.163,1.448C259.396,190.15,260.021,191.455,260.021,193.037z"/>
<path d="M276.39,211.529c0,5.609,0.018,9.914,0.061,12.914c0,0.473,0.03,1.283,0.094,2.434c0.063,1.049,0.091,1.859,0.091,2.438
	c0,0.43-0.256,0.687-0.769,0.77c-0.926,0.162-2.59,0.248-4.994,0.248c-2.465,0-4.038-0.086-4.717-0.248
	c-0.449-0.104-0.707-0.38-0.77-0.833c0-0.062,0-0.503,0-1.323c0-1.83,0.021-4.566,0.063-8.216c0.041-3.647,0.061-6.374,0.061-8.183
	c0-8.629,0.013-12.563,0.031-11.805c-0.06-4.539-0.318-8.453-0.771-11.742c-0.041-0.225-0.062-0.399-0.062-0.523
	c0-0.45,0.268-0.677,0.8-0.677h11.005c0.513,0,0.749,0.215,0.709,0.647l-0.03,0.553C276.655,196.857,276.39,204.708,276.39,211.529z
	"/>
</svg>
